<svg xmlns="http://www.w3.org/2000/svg" width="45" height="16" viewBox="0 0 45 16"><path d="M6.562 7.312L2 11.826V1.788A.995.995 0 0 0 1 .8a.993.993 0 0 0-.999.988v12.42a.99.99 0 0 0 .998.986 1 1 0 0 0 .707-.287l5.575-5.51 5.577 5.512a1.003 1.003 0 0 0 1.413 0 .978.978 0 0 0 0-1.398l-5.575-5.51L14.27 2.49a.978.978 0 0 0 0-1.398 1.008 1.008 0 0 0-1.413 0l-6.27 6.202c-.005 0-.009.004-.012.008l-.013.012zm16.55 7.886a.993.993 0 0 1-1-.987V1.79a.994.994 0 0 1 1-.989c.55 0 .999.443.999.989v12.42a.993.993 0 0 1-1 .987zM36.718 2.779v11.432c0 .545.446.987.998.987.55 0 1-.44 1-.987V2.779h5.282A.995.995 0 0 0 45 1.791a.995.995 0 0 0-1-.989H31.434a.995.995 0 0 0-.998.989c0 .545.447.988.999.988h5.285-.001z"/></svg>